<svg xmlns="http://www.w3.org/2000/svg" viewBox="0 0 504.56 72.87"><defs><style>.cls-1{fill:#fff;}.cls-2{fill:#17c1f2;}</style></defs><title>Recurso 1GL</title><g id="Capa_2" data-name="Capa 2"><g id="Capa_1-2" data-name="Capa 1"><path class="cls-1" d="M45.66,58.58a.72.72,0,0,1-.48.7,44.91,44.91,0,0,1-7.65,1.65,61.21,61.21,0,0,1-7.91.51,38.64,38.64,0,0,1-12-1.78,26.78,26.78,0,0,1-9.36-5.19,23.3,23.3,0,0,1-6.08-8.39A28.32,28.32,0,0,1,0,34.67a27.45,27.45,0,0,1,2.31-11.6A23.39,23.39,0,0,1,8.68,14.7a27.72,27.72,0,0,1,9.6-5.07,40.32,40.32,0,0,1,12-1.72,53.67,53.67,0,0,1,7,.44c2.2.29,4.35.68,6.46,1.14a1,1,0,0,1,.68.38,1.32,1.32,0,0,1,.25.59c0,.41.06.94.11,1.58s.08,1.34.11,2.09.06,1.51.11,2.29.08,1.49.11,2.15,0,1.22.06,1.69,0,.76,0,.88l-2.19.22a9.92,9.92,0,0,0-1.74-4.66,10.82,10.82,0,0,0-3.41-3A14.57,14.57,0,0,0,33.44,12a24.18,24.18,0,0,0-4.92-.51A22.12,22.12,0,0,0,20,13a16.49,16.49,0,0,0-6.13,4.28,18.15,18.15,0,0,0-3.69,6.64A28.16,28.16,0,0,0,9,32.48,31.9,31.9,0,0,0,10.5,42.61a21.53,21.53,0,0,0,4.6,7.89,20.63,20.63,0,0,0,7.6,5.11,28.16,28.16,0,0,0,10.57,1.83c.67,0,1.37,0,2.08,0s1.46-.08,2.22-.17V43.42a10.48,10.48,0,0,0-.17-2.07,2.39,2.39,0,0,0-.6-1.2,2.18,2.18,0,0,0-1.07-.58,7.48,7.48,0,0,0-1.63-.15l-.64,0c-.22,0-.44,0-.68,0L32.56,37c1.59-.11,3-.21,4.38-.28l3.51-.18L43,36.45l1.29,0a1.25,1.25,0,0,1,1.41,1.41Z"/><path class="cls-1" d="M69.35,33.8a28.42,28.42,0,0,0,6-1,11.84,11.84,0,0,0,4.33-2.18A9,9,0,0,0,82.29,27a14.06,14.06,0,0,0,.9-5.32,10,10,0,0,0-1-4.53A8.7,8.7,0,0,0,79.54,14a11.84,11.84,0,0,0-4-1.87,19.65,19.65,0,0,0-5-.61,9.21,9.21,0,0,0-2.64.28c-.58.19-.88.73-.88,1.61V59a1.13,1.13,0,0,1-1,1.23c-.5.08-1,.17-1.65.24s-1.19.13-1.76.17-1.1.08-1.58.09-.84,0-1.08,0c-.7,0-1.05-.36-1.05-1.09V15.56c0-1.47-.32-2.44-1-2.92a4,4,0,0,0-2.5-.73,17.52,17.52,0,0,0-1.94.13l-.26-2.41q4.4-.75,9.12-1.26a92.42,92.42,0,0,1,9.64-.5c1.41,0,2.89.06,4.44.17a34.21,34.21,0,0,1,4.57.66A24.42,24.42,0,0,1,85.17,10a12.42,12.42,0,0,1,3.53,2.24,10.43,10.43,0,0,1,2.42,3.34,11,11,0,0,1,.9,4.64,13.46,13.46,0,0,1-.86,5,12.54,12.54,0,0,1-2.37,3.85A15,15,0,0,1,85.25,32a24.79,24.79,0,0,1-4.35,2v.26a16.51,16.51,0,0,1,2.38.68,10.64,10.64,0,0,1,2.48,1.32A11.15,11.15,0,0,1,88,38.45a10.29,10.29,0,0,1,1.65,3.26L92.9,51.77a32,32,0,0,0,1.21,3.3,6.49,6.49,0,0,0,1.16,1.86,2.87,2.87,0,0,0,1.41.84,8.45,8.45,0,0,0,2,.2l.13,2.28c-.56.12-1.17.23-1.82.33s-1.32.18-2,.24L93.27,61c-.51,0-.9.06-1.16.06a8.77,8.77,0,0,1-2.51-.33,5,5,0,0,1-2-1.14,7.41,7.41,0,0,1-1.56-2.15,18.48,18.48,0,0,1-1.26-3.37L81.69,43.33a12.91,12.91,0,0,0-1.58-3.65,6.27,6.27,0,0,0-2.3-2.08,9.65,9.65,0,0,0-3.34-1c-1.31-.16-2.88-.27-4.73-.33Z"/><path class="cls-1" d="M112.1,41.75,105.34,60a.9.9,0,0,1-.79.57c-.53.06-1.13.1-1.81.13s-1.43,0-2.28,0c-.47,0-.7-.14-.7-.44a.44.44,0,0,1,0-.21l20.13-48.26L119,9.27a2.08,2.08,0,0,1-.08-.48c0-.44.27-.7.83-.79s1-.17,1.65-.24l1.82-.2c.59-.06,1.13-.1,1.63-.13s.86,0,1.1,0a1.34,1.34,0,0,1,1.27,1l19.6,50.44a1.67,1.67,0,0,1,.13.49c0,.5-.29.79-.88.88s-1.12.17-1.78.24-1.3.13-1.93.17-1.21.08-1.73.09-.91,0-1.15,0a1,1,0,0,1-1-.65l-7.16-18.64ZM113.51,38H130l-8.35-21.79Z"/><path class="cls-1" d="M160.31,7.52a1,1,0,0,1,.75.28,9.31,9.31,0,0,1,.61.73L192,48.83l-1.1-39.42c0-.36.24-.55.71-.57s1.23-.18,2.1-.27a25,25,0,0,1,2.55-.13c.47,0,.71.22.71.66L196,52v8c0,.35-.23.54-.7.57s-1.12.1-1.78.13-1.33,0-2,0a1.12,1.12,0,0,1-.62-.15,1.71,1.71,0,0,1-.43-.5L159.83,19.47l1.1,40.43c0,.35-.24.54-.71.57s-1.25.16-2.17.22-1.75.09-2.48.09c-.47,0-.71-.22-.71-.66L156,14.33l-3.6-4.92a.66.66,0,0,1-.18-.49c0-.38.27-.64.79-.79S154,8,154.78,7.89l2.21-.2c.75-.06,1.43-.1,2-.13S160.08,7.52,160.31,7.52Z"/><path class="cls-1" d="M210.85,60.16c-.7,0-1.06-.36-1.06-1.1V15.69q0-2.24-1-3a4.1,4.1,0,0,0-2.51-.72,15.24,15.24,0,0,0-1.93.13l-.26-2.37c3.28-.56,6.59-1,10-1.34a100,100,0,0,1,10.09-.51,67.26,67.26,0,0,1,8.23.49A40,40,0,0,1,240,10a27.78,27.78,0,0,1,6.49,3,19.58,19.58,0,0,1,5.07,4.71,21.26,21.26,0,0,1,3.32,6.63A29.86,29.86,0,0,1,256,33.22,28.12,28.12,0,0,1,253.67,45a24.7,24.7,0,0,1-6.54,8.73,28.83,28.83,0,0,1-10,5.4A41.19,41.19,0,0,1,224.56,61c-1.32,0-2.48,0-3.49-.13l-3-.29c-1-.1-2.06-.2-3.19-.29S212.4,60.16,210.85,60.16ZM218,56.65a25.6,25.6,0,0,0,3.38.55c1.15.1,2.33.15,3.56.15a25.86,25.86,0,0,0,9.41-1.6,18.63,18.63,0,0,0,6.94-4.6,19.84,19.84,0,0,0,4.28-7.25A29,29,0,0,0,247,34.32a26.92,26.92,0,0,0-1.52-9.23,20,20,0,0,0-4.42-7.18A19.55,19.55,0,0,0,234,13.25a26.25,26.25,0,0,0-9.62-1.65H222.1a10.86,10.86,0,0,0-3,.33A1.62,1.62,0,0,0,218,13.71Z"/><path class="cls-1" d="M362.44,53.35q0,1,.06,1.65a1.68,1.68,0,0,0,.36.92,1.45,1.45,0,0,0,.94.42,14.59,14.59,0,0,0,1.85.09H370q3.51,0,5.73-.18a7.66,7.66,0,0,0,6.48-3.91A39.06,39.06,0,0,0,384.85,47l2.2.49c0,.2-.08.74-.22,1.62s-.33,1.89-.55,3-.46,2.31-.73,3.51-.52,2.24-.79,3.12a2.12,2.12,0,0,1-2.15,1.49l-8.2-.08c-3.26,0-7.2-.05-11.8-.05h-7.29a.9.9,0,0,1-.84-.37,1.5,1.5,0,0,1-.22-.73V16.13a6.87,6.87,0,0,0-.24-2,2.75,2.75,0,0,0-.7-1.21,2.49,2.49,0,0,0-1.1-.61,5.23,5.23,0,0,0-1.43-.18,13.91,13.91,0,0,0-1.93.13l-.26-2.41q2.37-.45,4.5-.75t3.78-.48c1.1-.12,2-.21,2.75-.27s1.2-.09,1.4-.09a1.25,1.25,0,0,1,1.41,1.41Z"/><path class="cls-1" d="M389,9.85q2.37-.45,4.5-.75t3.78-.48c1.1-.12,2-.21,2.75-.27s1.2-.09,1.4-.09a1.25,1.25,0,0,1,1.41,1.41V59a1.13,1.13,0,0,1-1.06,1.23c-.5.08-1,.17-1.64.24l-1.76.18c-.57,0-1.1.07-1.58.08s-.85,0-1.08,0a1,1,0,0,1-1.06-1.09V16.13a6.87,6.87,0,0,0-.24-2,2.75,2.75,0,0,0-.7-1.21,2.49,2.49,0,0,0-1.1-.61,5.23,5.23,0,0,0-1.43-.18,13.91,13.91,0,0,0-1.93.13Z"/><path class="cls-1" d="M421.06,7.52a1,1,0,0,1,.75.28c.17.19.38.44.61.73l30.37,40.3-1.1-39.42c0-.36.24-.55.7-.57s1.24-.18,2.11-.27a25,25,0,0,1,2.55-.13c.47,0,.71.22.71.66L456.7,52v8c0,.35-.23.54-.7.57s-1.12.1-1.78.13-1.33,0-2,0a1.12,1.12,0,0,1-.62-.15,1.88,1.88,0,0,1-.44-.5L420.58,19.47l1.1,40.43c0,.35-.24.54-.71.57s-1.25.16-2.17.22-1.75.09-2.48.09c-.47,0-.71-.22-.71-.66l1.1-45.79-3.6-4.92a.66.66,0,0,1-.18-.49c0-.38.27-.64.79-.79s1.07-.17,1.8-.24l2.22-.2c.75-.06,1.43-.1,2.05-.13S420.83,7.52,421.06,7.52Z"/><path class="cls-1" d="M478.72,53.35q0,1,.06,1.65a1.61,1.61,0,0,0,.36.92,1.45,1.45,0,0,0,.94.42,14.48,14.48,0,0,0,1.85.09h5.66c2.35,0,4.25,0,5.72-.16a8.69,8.69,0,0,0,3.73-1,7.66,7.66,0,0,0,2.71-2.72,40.9,40.9,0,0,0,2.61-5.3l2.2.49c0,.2-.07.73-.2,1.58s-.3,1.84-.51,3-.43,2.27-.7,3.44-.53,2.2-.79,3.08a2.12,2.12,0,0,1-2.15,1.49c-1.09,0-2.38,0-3.87,0l-5,0-5.89,0q-3.13,0-6.57,0H471.6a.9.9,0,0,1-.84-.37,1.5,1.5,0,0,1-.22-.73V16.83c0-1.49-.33-2.48-1-3a4.13,4.13,0,0,0-2.5-.73,15.26,15.26,0,0,0-1.89.13l-.26-2.41c.61-.12,1.5-.27,2.68-.44s2.39-.35,3.67-.53,2.5-.32,3.69-.44,2.11-.18,2.79-.18h16c1,0,2,0,3.12,0l3.61-.06a.7.7,0,0,1,.79.66c0,.41.06,1,.11,1.62s.08,1.41.11,2.2.06,1.6.11,2.42.08,1.58.11,2.28,0,1.3.06,1.8,0,.81,0,.93l-2.2.22A29,29,0,0,0,498,16.48a5.65,5.65,0,0,0-1.95-2.5,6.27,6.27,0,0,0-3-1c-1.22-.1-2.79-.15-4.73-.15h-7.73a10.47,10.47,0,0,0-1.12,0,.94.94,0,0,0-.55.22.74.74,0,0,0-.2.51c0,.22,0,.52,0,.9v17.8l6.61-.33,5.23-.27,3.58-.17c.91,0,1.47-.07,1.67-.07q1.23,0,1.23,1.32c0,.56,0,1.13-.08,1.71s-.14,1.22-.22,1.89l-18-.61Z"/><path class="cls-2" d="M331.64,42.84a7.08,7.08,0,0,0-4.14,1.34l-20-15,18-5a7.09,7.09,0,1,0,.08-7.23L281.78,6.52A7.09,7.09,0,1,0,279,12.71l19.6,14.75-18.05,5a7.09,7.09,0,1,0,.6,6.82l42.5,10.53-43.1,12a7.08,7.08,0,1,0,1.21,4s0-.09,0-.13l43.74-12.18a7.09,7.09,0,1,0,6.13-10.63Zm-48-7.05,19-5.3,19.84,14.92Zm19.86-9.69L283.44,11l40.07,9.49Z"/></g></g></svg>